<?xml version="1.0" encoding="UTF-8"?>
<svg width="595px" height="294px" viewBox="0 0 595 294" version="1.1" xmlns="http://www.w3.org/2000/svg" xmlns:xlink="http://www.w3.org/1999/xlink">
    <!-- Generator: Sketch 43.2 (39069) - http://www.bohemiancoding.com/sketch -->
    <title>graphic-white</title>
    <desc>Created with Sketch.</desc>
    <defs></defs>
    <g id="Page-1" stroke="none" stroke-width="1" fill="none" fill-rule="evenodd">
        <g id="graphic-white">
            <g id="graphic" transform="translate(-65.000000, -193.000000)">
                <g id="logo-color" transform="translate(366.281313, 365.867099) rotate(-225.000000) translate(-366.281313, -365.867099) translate(111.281313, 103.867099)">
                    <path d="M250.343146,376.358298 C305.571623,376.358298 350.343146,331.586775 350.343146,276.358298 C350.343146,221.12982 305.571623,176.358298 250.343146,176.358298 C195.114668,176.358298 150.343146,221.12982 150.343146,276.358298 C150.343146,331.586775 195.114668,376.358298 250.343146,376.358298 Z" id="Mask" fill="#001529"></path>
                    <g id="DNA" transform="translate(0.792893, 0.792893)" fill="#FFE3C4">
                        <rect id="Rectangle-7" x="65.4045456" y="219.093796" width="200" height="20"></rect>
                        <rect id="Rectangle-7" x="180.979185" y="258.300902" width="123" height="20"></rect>
                        <rect id="Rectangle-7" x="245.716775" y="323.038492" width="200" height="20"></rect>
                        <rect id="Rectangle-7-Copy-4" x="284.128463" y="437.817713" width="225" height="20"></rect>
                        <rect id="Rectangle-7" transform="translate(294.097980, 357.787230) rotate(-270.000000) translate(-294.097980, -357.787230) " x="194.09798" y="347.78723" width="200" height="20"></rect>
                        <rect id="Rectangle-7-Copy-3" transform="translate(435.519336, 422.841054) rotate(-270.000000) translate(-435.519336, -422.841054) " x="335.519336" y="412.841054" width="200" height="20"></rect>
                        <rect id="Rectangle-7" transform="translate(255.914214, 280.321718) rotate(-270.000000) translate(-255.914214, -280.321718) " x="194.414214" y="270.321718" width="123" height="20"></rect>
                        <rect id="Rectangle-7" transform="translate(190.860390, 178.182107) rotate(-270.000000) translate(-190.860390, -178.182107) " x="90.8603897" y="168.182107" width="200" height="20"></rect>
                        <rect id="Rectangle-7-Copy-2" transform="translate(75.601984, 120.291234) rotate(-270.000000) translate(-75.601984, -120.291234) " x="-43.3980156" y="110.291234" width="238" height="20"></rect>
                        <rect id="Rectangle-7-Copy" transform="translate(101.057828, 88.379546) rotate(-180.000000) translate(-101.057828, -88.379546) " x="1.05782848" y="78.3795462" width="200" height="20"></rect>
                    </g>
                    <g id="Shadows" transform="translate(85.435029, 73.013673)">
                        <rect id="Rectangle-12-Copy" fill="none" transform="translate(4.394878, 15.941992) rotate(-270.000000) translate(-4.394878, -15.941992) " x="-11.1051224" y="12.441992" width="31" height="7"></rect>
                        <rect id="Rectangle-12-Copy-2" fill="none" transform="translate(364.312229, 378.687771) rotate(-270.000000) translate(-364.312229, -378.687771) " x="348.812229" y="375.187771" width="31" height="7"></rect>
                        <rect id="Rectangle-12" fill="#001529" transform="translate(119.653283, 158.070455) rotate(-270.000000) translate(-119.653283, -158.070455) " x="104.153283" y="154.570455" width="31" height="7"></rect>
                        <rect id="Rectangle-12" fill="#001529" transform="translate(184.707107, 196.254221) rotate(-270.000000) translate(-184.707107, -196.254221) " x="169.207107" y="192.754221" width="31" height="7"></rect>
                        <rect id="Rectangle-12" fill="#001529" transform="translate(222.890873, 261.479618) rotate(-270.000000) translate(-222.890873, -261.479618) " x="210.390873" y="257.979618" width="25" height="7"></rect>
                    </g>
                </g>
                <g id="words" transform="translate(95.000000, 220.000000)">
                    <g id="rare-disease" transform="translate(0.000000, 14.000000)">
                        <polyline id="Path-1" stroke="#FFBA6F" stroke-width="2" points="35.659812 18.1091309 35.659812 56.2534917 77.369277 56.2534934"></polyline>
                        <circle id="Oval-2" stroke="#FFB96F" stroke-width="2" cx="81.5" cy="56.5" r="4.5"></circle>
                        <rect id="Rectangle-18" fill="#001529" x="0" y="0" width="73" height="19" rx="9.5"></rect>
                        <text id="Rare-disease" font-family="Roboto-Medium, Roboto" font-size="11" font-weight="400" fill="#FFFFFF">
                            <tspan x="5" y="13">Rare disease</tspan>
                        </text>
                    </g>
                    <g id="open-source" transform="translate(400.000000, 122.000000)">
                        <polyline id="Path-1" stroke="#FFBA6F" stroke-width="2" points="35.659812 18.1091309 35.659812 56.2534917 77.369277 56.2534934"></polyline>
                        <circle id="Oval-2" stroke="#FFB96F" stroke-width="2" cx="81.5" cy="56.5" r="4.5"></circle>
                        <rect id="Rectangle-18" fill="#001529" x="0" y="0" width="73" height="19" rx="9.5"></rect>
                        <text id="Open-source" font-family="Roboto-Medium, Roboto" font-size="11" font-weight="400" fill="#FFFFFF">
                            <tspan x="5" y="13">Open source</tspan>
                        </text>
                    </g>
                    <g id="diagnostics" transform="translate(40.000000, 127.000000)">
                        <polyline id="Path-1" stroke="#FFBA6F" stroke-width="2" points="55.659812 18.1091309 55.659812 48.7317715 8.7799478 48.7317715"></polyline>
                        <circle id="Oval-2" stroke="#FFB96F" stroke-width="2" cx="4.5" cy="48.5" r="4.5"></circle>
                        <g id="Rectangle-18-+-Python" transform="translate(30.000000, 0.000000)">
                            <rect id="Rectangle-18" fill="#001529" x="0" y="0" width="49" height="19" rx="9.5"></rect>
                            <text id="Python" font-family="Roboto-Medium, Roboto" font-size="11" font-weight="400" fill="#FFFFFF">
                                <tspan x="7" y="13">Python</tspan>
                            </text>
                        </g>
                    </g>
                    <g id="precision" transform="translate(427.000000, 3.000000)">
                        <polyline id="Path-1" stroke="#FFBA6F" stroke-width="2" points="74.5 19 74.4999995 86.441864 45.343815 86.441864"></polyline>
                        <circle id="Oval-2" stroke="#FFB96F" stroke-width="2" cx="40.5" cy="86.5" r="4.5"></circle>
                        <g id="text">
                            <rect id="Rectangle-18" fill="#001529" x="0" y="0" width="108" height="19" rx="9.5"></rect>
                            <text id="Precision-medicine" font-family="Roboto-Medium, Roboto" font-size="11" font-weight="400" fill="#FFFFFF">
                                <tspan x="8" y="13">Precision medicine</tspan>
                            </text>
                        </g>
                    </g>
                    <g id="DNA" transform="translate(136.000000, 157.000000)">
                        <path d="M18.659812,62.9473534 L18.659812,9.24784731" id="Path-1" stroke="#FFBA6F" stroke-width="2"></path>
                        <circle id="Oval-2" stroke="#FFB96F" stroke-width="2" cx="18.5" cy="4.5" r="4.5"></circle>
                        <g id="text" transform="translate(0.000000, 61.000000)">
                            <rect id="Rectangle-18" fill="#001529" x="0" y="0" width="36" height="19" rx="9.5"></rect>
                            <text id="DNA" font-family="Roboto-Medium, Roboto" font-size="11" font-weight="400" fill="#FFFFFF">
                                <tspan x="7" y="13">DNA</tspan>
                            </text>
                        </g>
                    </g>
                    <g id="NGS" transform="translate(348.000000, 27.000000)">
                        <path d="M18.659812,63.5386722 L18.659812,18.2478473" id="Path-1" stroke="#FFBA6F" stroke-width="2"></path>
                        <circle id="Oval-2" stroke="#FFB96F" stroke-width="2" cx="18.5" cy="67.5" r="4.5"></circle>
                        <g id="text">
                            <rect id="Rectangle-18" fill="#001529" x="0" y="0" width="36" height="19" rx="9.5"></rect>
                            <text id="NGS" font-family="Roboto-Medium, Roboto" font-size="11" font-weight="400" fill="#FFFFFF">
                                <tspan x="7" y="13">NGS</tspan>
                            </text>
                        </g>
                    </g>
                    <g id="cancer" transform="translate(119.000000, 0.000000)">
                        <polyline id="Path-1" stroke="#FFBA6F" stroke-width="2" points="4.65981202 49.5386722 4.65981202 9.91469883 70.7074805 9.91469883"></polyline>
                        <circle id="Oval-2" stroke="#FFB96F" stroke-width="2" cx="4.5" cy="53.5" r="4.5"></circle>
                        <g id="text" transform="translate(69.000000, 0.000000)">
                            <rect id="Rectangle-18" fill="#001529" x="0" y="0" width="49" height="19" rx="9.5"></rect>
                            <text id="Cancer" font-family="Roboto-Medium, Roboto" font-size="11" font-weight="400" fill="#FFFFFF">
                                <tspan x="7" y="13">Cancer</tspan>
                            </text>
                        </g>
                    </g>
                    <g id="hiseq-x" transform="translate(342.000000, 207.000000)">
                        <path d="M85.003788,9.5 L52,9.5" id="Path-1" stroke="#FFBA6F" stroke-width="2"></path>
                        <circle id="Oval-2" stroke="#FFB96F" stroke-width="2" cx="89.5" cy="9.5" r="4.5"></circle>
                        <g id="text">
                            <rect id="Rectangle-18" fill="#001529" x="0" y="0" width="53" height="19" rx="9.5"></rect>
                            <text id="HiSeq-X" font-family="Roboto-Medium, Roboto" font-size="11" font-weight="400" fill="#FFFFFF">
                                <tspan x="7" y="13">HiSeq X</tspan>
                            </text>
                        </g>
                    </g>
                </g>
            </g>
        </g>
    </g>
</svg>